<svg xmlns="http://www.w3.org/2000/svg" xmlns:xlink="http://www.w3.org/1999/xlink" viewBox="0 0 133.167 109.167" fill="#fff" fill-rule="evenodd" stroke="#000" stroke-linecap="round" stroke-linejoin="round"><use xlink:href="#A" x="2.083" y="2.083"/><symbol id="A" overflow="visible"><g stroke="none" fill="#3f3f3f" fill-rule="nonzero"><use xlink:href="#C"/><use xlink:href="#D"/></g><g fill="none" stroke-width="4.167"><use xlink:href="#C"/><use xlink:href="#D"/></g></symbol><defs ><path id="C" d="M32.425 40.458L24.696 49c1.423-16.056 11.754-29.906 27.006-35.444 4.406-1.606 9.06-2.428 13.75-2.429 11.423 0 22.417 4.948 30.162 13.575l1.25 1.417 8.035-7.517-1.25-1.417C93.848 6.263 79.931 0 65.463 0c-5.931 0-11.792 1.033-17.408 3.075-19.181 6.967-32.417 24.642-34.233 44.965l-6.854-7.581L0 46.952l19.698 21.771 19.696-21.771-6.962-6.494z"/><path id="D" d="M128.737 56.973L109.04 35.202 89.344 56.973l6.963 6.494 7.694-8.5c-1.354 16.146-11.708 30.088-27.027 35.65a40.19 40.19 0 0 1-13.75 2.427c-11.423 0-22.417-4.948-30.16-13.575l-1.25-1.417-8.035 7.517 1.25 1.417c9.804 10.917 23.725 17.181 38.19 17.181 5.933 0 11.792-1.035 17.408-3.073 19.267-6.994 32.542-24.796 34.263-45.233l6.881 7.604 6.969-6.492z"/></defs></svg>